<svg id="Capa_1" enable-background="new 0 0 512 512" height="512" viewBox="0 0 512 512" width="512" xmlns="http://www.w3.org/2000/svg"><g><path d="m376.119 93.563c-.555-.604-1.131-1.142-1.673-1.645-.356-.331-.771-.715-1.293-1.217l-67.775-64.185-1.005-.959c-1.44-1.381-2.785-2.65-4.416-3.551-.256-.147-.517-.285-.791-.402-1.275-.57-2.738-.917-4.557-.917h-280.927c-7.544 0-13.682 6.118-13.682 13.639v443.349c0 7.52 6.138 13.639 13.682 13.639h351.642c7.56 0 13.711-6.118 13.711-13.639v-208.857c0-4.139-3.355-7.494-7.494-7.494s-7.494 3.355-7.494 7.494v207.507h-349.059v-440.65h273.734l-.024 39.074c-.018 8.535 3.321 16.59 9.401 22.683 6.144 6.157 14.308 9.548 22.989 9.548h42.958v126.942c0 4.139 3.355 7.494 7.494 7.494s7.494-3.355 7.494-7.494c0 0 0-134.158 0-134.437 0-2.411-1.145-4.551-2.915-5.922zm-67.411-6.718c-3.248-3.255-5.032-7.539-5.022-12.075l.018-29.204 49.016 46.426h-31.633c-4.671 0-9.067-1.827-12.379-5.147z"/><path d="m259.134 133.381c0-4.139-3.355-7.494-7.494-7.494h-140.363c-4.139 0-7.494 3.355-7.494 7.494s3.355 7.494 7.494 7.494h140.363c4.139 0 7.494-3.355 7.494-7.494z"/><path d="m111.277 93.434h140.363c4.139 0 7.494-3.355 7.494-7.494s-3.355-7.494-7.494-7.494h-140.363c-4.139 0-7.494 3.355-7.494 7.494 0 4.138 3.355 7.494 7.494 7.494z"/><path d="m321.606 267.497h-135.816c-4.139 0-7.494 3.355-7.494 7.494s3.355 7.494 7.494 7.494h135.816c4.139 0 7.494-3.355 7.494-7.494s-3.356-7.494-7.494-7.494z"/><path d="m321.606 224.2h-135.816c-4.139 0-7.494 3.355-7.494 7.494s3.355 7.494 7.494 7.494h135.816c4.139 0 7.494-3.355 7.494-7.494s-3.356-7.494-7.494-7.494z"/><path d="m321.606 395.246h-135.816c-4.139 0-7.494 3.355-7.494 7.494s3.355 7.494 7.494 7.494h135.816c4.139 0 7.494-3.355 7.494-7.494s-3.356-7.494-7.494-7.494z"/><path d="m321.606 351.977h-135.816c-4.139 0-7.494 3.355-7.494 7.494s3.355 7.494 7.494 7.494h135.816c4.139 0 7.494-3.355 7.494-7.494s-3.356-7.494-7.494-7.494z"/><path d="m159.137 182.63c-3.326-2.463-8.019-1.763-10.482 1.564l-14.722 19.886h-71.497c-7.116 0-12.905 5.772-12.905 12.867v72.791c0 7.095 5.789 12.867 12.905 12.867h73.304c7.116 0 12.905-5.772 12.905-12.867v-72.791c0-2.054-.497-3.99-1.359-5.714l13.415-18.121c2.463-3.326 1.762-8.019-1.564-10.482zm-25.48 104.986h-69.138v-68.549h58.317l-23.889 32.267-7.395-8.328c-2.747-3.094-7.484-3.376-10.579-.627-3.095 2.748-3.376 7.485-.627 10.579l13.527 15.233c1.425 1.605 3.466 2.518 5.603 2.518.111 0 .222-.002.333-.007 2.256-.101 4.347-1.213 5.69-3.028l28.157-38.034v57.976z"/><path d="m159.137 308.207c-3.326-2.462-8.019-1.763-10.482 1.564l-14.722 19.885h-71.497c-7.116 0-12.905 5.772-12.905 12.867v72.791c0 7.095 5.789 12.867 12.905 12.867h73.304c7.116 0 12.905-5.772 12.905-12.867v-72.791c0-2.054-.497-3.99-1.359-5.714l13.415-18.121c2.463-3.326 1.762-8.019-1.564-10.481zm-25.48 104.986h-69.138v-68.549h58.318l-23.889 32.268-7.395-8.328c-2.747-3.094-7.484-3.376-10.579-.627-3.095 2.748-3.376 7.485-.627 10.579l13.527 15.233c1.425 1.605 3.466 2.518 5.603 2.518.111 0 .222-.002.333-.007 2.256-.1 4.347-1.213 5.69-3.028l28.157-38.034z"/><path d="m504.506 114.026h-25.748v-15.369c0-6.267-3.594-11.706-8.835-14.412v-28.513c0-15.148-12.387-27.471-27.612-27.471s-27.612 12.323-27.612 27.471v28.52c-5.225 2.708-8.807 8.144-8.807 14.406v311.684c0 .047.006.092.007.139.002.101.009.201.015.301.011.193.029.384.054.573.013.092.026.184.042.276.038.216.085.429.141.639.017.063.03.126.049.189.084.284.181.563.296.832l27.89 65.107c.072.168.15.333.233.494l.097.187c.768 1.486 2.798 5.414 7.592 5.414.039 0 .079 0 .118-.001 4.902-.065 6.84-4.073 7.667-5.785.05-.102.097-.205.141-.309l27.916-65.101c.116-.271.215-.551.299-.837.017-.059.03-.119.046-.178.057-.213.106-.429.144-.65.016-.09.029-.181.041-.271.026-.191.044-.384.055-.579.006-.099.013-.197.015-.296.001-.048.007-.095.007-.144v-56.386c0-4.139-3.355-7.494-7.494-7.494s-7.494 3.355-7.494 7.494v48.892h-42.89v-304.191c0-.666.613-1.251 1.313-1.251h40.236c.714 0 1.341.584 1.341 1.251v220.374c0 4.139 3.355 7.494 7.494 7.494s7.494-3.355 7.494-7.494v-190.016h18.254v104.765c0 4.139 3.355 7.494 7.494 7.494s7.495-3.355 7.495-7.494v-112.259c0-4.139-3.355-7.495-7.494-7.495zm-44.61 303.81-17.585 41.007-17.565-41.007zm-30.208-335.418v-26.686c0-6.883 5.663-12.483 12.624-12.483s12.624 5.6 12.624 12.483v26.687h-25.248z"/></g></svg>